PathFileType	4	(X/Y/Z)	G:\Shared drives\HPL_Drive\Nord Sprinting Study\Kristen_Nord_test\Trimmed_Nord000002.trc
DataRate	CameraRate	NumFrames	NumMarkers	Units	OrigDataRate	OrigDataStartFrame	OrigNumFrames
200.00	200.00	      4	52	mm	200.00	1628	      2170
Frame#	Time	C7			R_Shoulder			L_Shoulder			Sternum			R_humerus			R_elbow_med			R_elbow_lat			R_forearm			R_wrist_radius			R_wrist_ulna			L_humerus			L_elbow_med			L_elbow_lat			L_forearm			L_wrist_radius			L_wrist_ulna			r.ASIS			r.PSIS			r_IC			L.ASIS			L.PSIS			l_IC			r_thigh1			r_thigh2			r_thigh3			r_thigh4			r_thigh5			r_knee			r_mknee			r_shank_antsup			r_sh2			r_sh3			r_sh4			r_ankle			r_mankle			r_calc			r_5meta			r_toe			L_thigh1			L_thigh2			L_thigh3			L_thigh4			L_knee			L_mknee			L_shank_antsup			L_sh2			L_sh3			L_ankle			L_mankle			L_calc			L_5meta			L_toe			
		X1	Y1	Z1	X2	Y2	Z2	X3	Y3	Z3	X4	Y4	Z4	X5	Y5	Z5	X6	Y6	Z6	X7	Y7	Z7	X8	Y8	Z8	X9	Y9	Z9	X10	Y10	Z10	X11	Y11	Z11	X12	Y12	Z12	X13	Y13	Z13	X14	Y14	Z14	X15	Y15	Z15	X16	Y16	Z16	X17	Y17	Z17	X18	Y18	Z18	X19	Y19	Z19	X20	Y20	Z20	X21	Y21	Z21	X22	Y22	Z22	X23	Y23	Z23	X24	Y24	Z24	X25	Y25	Z25	X26	Y26	Z26	X27	Y27	Z27	X28	Y28	Z28	X29	Y29	Z29	X30	Y30	Z30	X31	Y31	Z31	X32	Y32	Z32	X33	Y33	Z33	X34	Y34	Z34	X35	Y35	Z35	X36	Y36	Z36	X37	Y37	Z37	X38	Y38	Z38	X39	Y39	Z39	X40	Y40	Z40	X41	Y41	Z41	X42	Y42	Z42	X43	Y43	Z43	X44	Y44	Z44	X45	Y45	Z45	X46	Y46	Z46	X47	Y47	Z47	X48	Y48	Z48	X49	Y49	Z49	X50	Y50	Z50	X51	Y51	Z51	X52	Y52	Z52	

1628	8.135	1194.03784	890.80499	1095.85315	1325.66687	913.57367	1071.86255	1065.93091	941.53064	1075.28308	1200.24536	972.89990	983.22925	1477.41711	812.93353	1059.50439	1582.14636	732.80865	974.06604	1568.89075	710.93469	1049.36536	1616.60254	820.30194	1102.36292	1636.31042	936.34247	1110.79150	1671.62866	912.40198	1136.57556	868.45801	884.46893	1054.76575	764.94489	863.56232	959.03510	758.93927	828.65082	1029.36267	786.91895	958.97217	1098.18860	774.63446	1050.03027	1125.76270	830.91473	1043.49243	1118.51892	1312.07495	665.13080	632.25049	1253.05579	596.30396	808.27008	1343.37817	682.65411	741.26929	1074.62415	660.97980	623.17572	1137.29138	594.35364	798.58826	1047.23132	684.50958	716.52875	1379.46045	505.55121	466.89517	1376.73657	440.59738	371.72867	1388.53613	386.76138	375.05209	1385.58728	419.50958	529.97095	1372.23877	354.60352	431.38815	1376.51086	351.04800	308.26724	1253.59729	340.32465	317.88419	1397.83911	222.07722	316.43869	1382.91101	102.73670	327.30930	1397.23303	226.88200	393.44421	1383.95911	112.59887	409.71869	1369.93799	-66.67683	380.60248	1292.84387	-53.73514	354.54263	1313.14197	-93.41988	439.66238	1378.51794	-141.83366	282.22046	1346.80139	-111.76987	230.71220	1011.08752	505.10764	454.23141	1013.44574	422.47113	338.71701	1005.24695	409.60199	527.37787	1013.85254	331.93817	414.94897	1002.54126	325.62421	324.84393	1129.70972	320.54056	304.36041	984.00482	212.67247	322.15430	997.33307	226.38765	411.70825	1008.75336	104.54156	418.05951	1013.42267	-75.46915	398.25797	1080.94006	-59.59143	340.27072	1067.29871	-74.00697	439.36346	998.49042	-182.36516	306.19171	1036.65417	-170.19923	247.51990	
1629	8.140	1194.60156	890.86810	1096.08289	1325.69995	914.05945	1071.41138	1065.91052	942.04749	1074.89429	1200.17224	973.32050	982.83026	1477.31604	813.23138	1059.13171	1581.95264	732.93909	973.76843	1568.73181	711.14746	1049.07153	1616.59387	820.54669	1101.91553	1636.82202	936.90332	1110.26807	1671.80444	912.70673	1136.03723	868.41241	884.90161	1054.41760	764.95807	863.86121	958.66077	758.93140	829.02783	1029.05542	786.82062	959.44592	1097.73438	774.43579	1050.55701	1125.14673	830.82550	1044.01343	1117.96594	1311.97559	665.31683	632.15625	1252.97766	596.55127	808.18201	1343.36255	682.87054	741.16193	1074.55872	661.06183	622.95776	1137.28333	594.57483	798.47192	1047.16699	684.70313	716.34210	1379.41614	505.63007	466.82645	1376.73401	440.69678	371.70175	1388.52271	386.82950	375.05466	1385.25415	419.45120	529.81042	1372.26001	354.68884	431.38409	1376.48853	351.07367	308.28540	1253.61462	340.34985	317.88715	1397.83655	222.06288	316.49115	1382.95544	102.77171	327.34128	1397.22839	226.93938	393.47638	1383.98279	112.63644	409.75110	1369.99963	-66.67951	380.60742	1292.90051	-53.76266	354.51523	1313.19495	-93.41529	439.64304	1378.64343	-141.78502	282.20377	1346.97961	-111.73770	230.65076	1010.98779	505.10797	454.13489	1013.43445	422.43930	338.73425	1005.50995	409.71191	528.00739	1013.94788	331.78827	414.77316	1002.56628	325.58536	324.85724	1129.73193	320.53772	304.35336	984.02338	212.62144	322.27646	996.82233	226.80336	411.71982	1008.78320	104.50116	418.07367	1013.48480	-75.48151	398.30679	1080.96423	-59.64037	340.29916	1067.33850	-74.00978	439.37878	998.55896	-182.41891	306.24728	1038.24231	-170.64774	246.64586	
1630	8.145	1194.69238	891.50037	1095.43848	1325.69995	914.50189	1071.03577	1065.85095	942.54706	1074.54871	1200.11438	973.73547	982.37415	1477.22327	813.53101	1058.75208	1581.64050	732.98615	973.35645	1568.53589	711.38275	1048.78064	1616.57813	820.75183	1101.45496	1636.82080	937.15100	1109.72791	1671.86267	912.93884	1135.45972	868.41364	885.33667	1054.07507	764.97504	864.14819	958.27191	758.92914	829.41998	1028.74487	786.78632	959.92517	1097.35022	774.36639	1051.10669	1124.51147	830.75543	1044.51221	1117.44629	1311.96191	665.54022	632.04877	1252.88721	596.87231	808.01367	1343.38171	683.08228	741.03400	1075.38037	660.81213	622.23248	1137.25171	594.84869	798.30310	1047.10608	684.92346	716.13318	1379.32141	505.73221	466.79211	1376.63623	440.75641	371.63995	1388.48071	386.91260	375.05453	1385.58459	419.79279	529.95795	1372.23608	354.76120	431.38620	1376.49500	351.08905	308.30969	1253.57239	340.32965	317.90875	1397.92285	222.12677	316.49664	1382.99426	102.79108	327.35919	1397.21375	226.93738	393.52817	1383.97473	112.62269	409.76859	1370.08203	-66.63719	380.53568	1292.99463	-53.73931	354.51465	1313.24597	-93.42186	439.60587	1378.96240	-141.80864	282.23389	1347.10632	-111.72263	230.63412	1010.97150	505.11719	454.02905	1013.42334	422.38351	338.68753	1005.54767	409.80890	527.96124	1013.96423	331.79578	414.79547	1002.98993	325.62967	324.58960	1129.74097	320.52975	304.34842	984.07050	212.61987	322.23834	997.38867	226.32655	411.71280	1008.81873	104.47823	418.08484	1013.54523	-75.49885	398.29596	1081.01636	-59.62478	340.32892	1067.48950	-74.00739	439.57034	998.63098	-182.45189	306.31177	1038.32800	-170.70221	246.67365	
1631	8.150	1194.64441	892.00201	1095.09424	1325.41687	914.97168	1070.55249	1065.79980	943.00128	1074.15417	1200.07959	974.11493	981.94580	1477.08557	813.85266	1058.38928	1581.37012	733.02258	972.81476	1568.38049	711.62030	1048.53540	1616.52454	821.07245	1101.10132	1636.86584	937.41583	1109.20166	1671.89526	913.20251	1134.88477	868.39014	885.78656	1053.77722	764.98816	864.43970	957.83459	758.89203	829.82483	1028.46106	786.79407	960.37500	1096.85388	774.29218	1051.59692	1124.00647	830.70288	1045.03821	1116.86707	1311.86731	665.75317	631.92871	1252.83972	597.17181	807.84924	1343.35510	683.31812	740.91235	1075.35925	660.90106	622.04468	1137.38477	595.23315	797.64777	1047.04810	685.15344	715.91571	1379.25427	505.88190	466.72748	1376.58130	440.83847	371.64764	1388.46252	387.01639	375.04205	1385.56531	419.87900	529.91083	1372.16003	354.75156	431.52356	1376.47485	351.12640	308.33481	1253.57776	340.33191	317.89774	1397.92676	222.13086	316.54150	1383.06506	102.83302	327.39734	1397.20813	226.96202	393.53217	1383.97620	112.67175	409.80212	1370.16125	-66.61587	380.53067	1293.05127	-53.74577	354.51373	1313.30090	-93.43179	439.57257	1379.08569	-141.77113	282.21783	1347.26648	-111.72035	230.60571	1010.89557	505.09207	453.95123	1013.39355	422.38663	338.64069	1005.55457	409.83386	527.94183	1013.97015	331.80954	414.78152	1002.55530	325.55023	324.87296	1129.75024	320.53949	304.34219	984.13898	212.62639	322.30200	997.40179	226.31679	411.70596	1008.90076	104.42870	418.07712	1013.60944	-75.48628	398.30289	1081.09314	-59.62239	340.31128	1067.54224	-73.97608	439.61438	998.65887	-182.51991	306.39197	1038.40698	-170.76199	246.73909	
